# xmcd
#
# Track frame offsets:
#	150
#	19363
#	37291
#	56444
#	73000
#	87030
#	104006
#	121874
#	139319
#	154939
#	172376
#	194732
#	212196
#	228760
#	240334
#	254882
#	271191
#	285578
#	302301
#	319520
#
# Disc length: 4482 seconds
#
# Revision: 0
# Processed by: cddbd v1.5.2PL0 Copyright (c) Steve Scherf et al.
# Submitted via: EasyCDDAExtractor 16.1.0.1
#
DISCID=2c118014
DTITLE=Thomas Anders - Best Of
DYEAR=2012
DGENRE=Pop
TTITLE0=Judy
TTITLE1=Du weinst um ihn
TTITLE2=Es war die Nacht der ersten Liebe
TTITLE3=Ich will nicht dein Leben
TTITLE4=Was macht das schon (Pick Up The Phone)
TTITLE5=Wovon träumst du denn (in seinen Armen)
TTITLE6=Endstation Sehnsucht
TTITLE7=Heißkalter Engel
TTITLE8=Es geht mir gut heut' Nacht
TTITLE9=Liebe ist ein zweites Leben
TTITLE10=Einer von uns Beiden
TTITLE11=Mädchen so wie Du
TTITLE12=Ich hatte mal Freunde
TTITLE13=Steig aus, wenn du kannst
TTITLE14=Du bist die Frau fürs Leben
TTITLE15=Zwischen Himmel und Hölle
TTITLE16=Wie ein verbotener Kontinent
TTITLE17=Und wenn die Sonne schlafen geht
TTITLE18=You're My Heart, You're My Soul
TTITLE19=Geboren
EXTD=
EXTT0=
EXTT1=
EXTT2=
EXTT3=
EXTT4=
EXTT5=
EXTT6=
EXTT7=
EXTT8=
EXTT9=
EXTT10=
EXTT11=
EXTT12=
EXTT13=
EXTT14=
EXTT15=
EXTT16=
EXTT17=
EXTT18=
EXTT19=
PLAYORDER=
